<svg width="46" height="46" viewBox="0 0 46 46" fill="none" xmlns="http://www.w3.org/2000/svg">
<path d="M30.9277 9.71755C27.9412 9.71755 25.0571 10.771 22.7392 12.697C20.5236 11.0283 17.8678 10.1259 15.0793 10.1259C13.7514 10.1259 12.4361 10.3329 11.1693 10.7431L10.6086 10.9239L10.6679 11.5299C10.72 12.0668 10.5403 12.6001 10.1756 12.9842C10.03 13.1352 9.86114 13.2546 9.67428 13.3366L8.8046 13.7188L9.39037 14.487C10.1109 15.4323 10.0372 16.7841 9.21967 17.6324C8.79022 18.078 8.22059 18.3223 7.61325 18.3223C7.10114 18.3223 6.59983 18.1414 6.20092 17.8114L5.49656 17.2278L5.10485 18.0724C5.00781 18.2831 4.88563 18.464 4.74188 18.615C4.36993 19.0009 3.8596 19.1911 3.34031 19.1351L2.75634 19.0736L2.58204 19.6554C1.13018 24.4882 2.3718 29.72 5.82002 33.309C8.29073 35.8727 11.5774 37.2841 15.0738 37.2841C18.089 37.2841 20.9462 36.2325 23.2586 34.3009C25.5047 35.9864 28.1424 36.8739 30.9259 36.8739C38.1405 36.8739 44.0088 30.7824 44.0088 23.2967C44.0124 15.8085 38.1419 9.71753 30.9273 9.71753L30.9277 9.71755ZM6.84068 32.254C3.89382 29.1868 2.75817 24.7735 3.81295 20.6194C4.5479 20.5486 5.23068 20.2167 5.76257 19.6667C5.83804 19.5883 5.90992 19.5044 5.98 19.4168C6.48673 19.676 7.04913 19.8139 7.61875 19.8139C8.6088 19.8139 9.53961 19.4131 10.2404 18.6859C11.3796 17.5038 11.6347 15.7214 10.9502 14.267C11.0364 14.1943 11.1209 14.1179 11.1999 14.034C11.7228 13.4821 12.0373 12.7698 12.1037 12.0165C13.0741 11.7518 14.0731 11.6175 15.0812 11.6175C18.1898 11.6175 21.1132 12.8742 23.3143 15.1583C27.8568 19.8717 27.8568 27.5389 23.3143 32.2519C21.1149 34.534 18.1894 35.7907 15.0775 35.7907C11.9635 35.7907 9.03815 34.534 6.84073 32.2537L6.84068 32.254ZM30.9277 35.3808C28.5558 35.3808 26.3024 34.6536 24.3584 33.2757C29.429 27.9785 29.4202 19.3887 24.3278 14.1048C24.1841 13.9538 24.035 13.8084 23.8858 13.6667C25.9055 12.08 28.3744 11.2111 30.928 11.2111C37.35 11.2111 42.5733 16.633 42.5733 23.2967C42.5751 29.9586 37.35 35.3804 30.928 35.3804L30.9277 35.3808Z" fill="black"/>
<path d="M15.8521 19.5936C16.4702 19.5936 17.0506 19.3438 17.4854 18.8926C17.9239 18.4451 18.1665 17.8447 18.1701 17.2033C18.1719 16.5563 17.9311 15.9485 17.4854 15.4861C17.047 15.0386 16.4666 14.7925 15.8521 14.7925C15.2376 14.7925 14.6571 15.0386 14.2097 15.4954C13.3167 16.437 13.3185 17.9603 14.2133 18.8907C14.6518 19.3438 15.234 19.5936 15.8521 19.5936H15.8521ZM15.2268 16.547C15.3939 16.3755 15.6167 16.2823 15.8521 16.2823C16.0875 16.2823 16.3103 16.3774 16.4738 16.5433C16.6427 16.7186 16.7344 16.9498 16.7326 17.1959C16.7308 17.4364 16.6409 17.662 16.4738 17.8335C16.1396 18.1803 15.5664 18.1803 15.2304 17.8335C14.8908 17.4812 14.8926 16.8994 15.2268 16.547L15.2268 16.547Z" fill="black"/>
<path d="M6.82457 22.1034C6.20642 22.1034 5.62604 22.3532 5.18223 22.8138C4.29636 23.7479 4.29636 25.2693 5.18583 26.2091C5.62426 26.664 6.20647 26.9157 6.82458 26.9157C7.44268 26.9157 8.02311 26.664 8.46333 26.2091C9.36713 25.2712 9.36713 23.746 8.46333 22.8101C8.02309 22.3551 7.44268 22.1034 6.82458 22.1034H6.82457ZM7.44631 25.1556C7.11209 25.5024 6.53348 25.4987 6.20826 25.1593C5.86865 24.8013 5.86865 24.2196 6.20467 23.8654C6.37178 23.692 6.59279 23.5969 6.8264 23.5969C7.06 23.5969 7.28101 23.692 7.44814 23.8654C7.79494 24.2271 7.79494 24.7939 7.44634 25.1556L7.44631 25.1556Z" fill="black"/>
<path d="M15.7173 29.2913C16.3354 29.2913 16.9158 29.0396 17.3596 28.5809C18.2455 27.6468 18.2455 26.1253 17.3506 25.1819C16.9122 24.7344 16.3318 24.4883 15.7173 24.4883C15.1028 24.4883 14.5223 24.7344 14.0785 25.1856C13.1747 26.1234 13.1747 27.6467 14.0785 28.5846C14.5188 29.0414 15.101 29.2913 15.7173 29.2913H15.7173ZM15.092 26.2465C15.2591 26.075 15.4819 25.9818 15.7173 25.9818C15.9527 25.9818 16.1755 26.0768 16.3354 26.2391C16.675 26.597 16.675 27.1788 16.339 27.533C16.0048 27.8798 15.4316 27.8798 15.0956 27.533C14.7488 27.1694 14.7488 26.6026 15.092 26.2465L15.092 26.2465Z" fill="black"/>
<path d="M20.5547 19.355C19.9365 19.355 19.3561 19.6067 18.9213 20.0561C18.4829 20.5035 18.2403 21.1039 18.2367 21.7453C18.2349 22.3923 18.4757 23.0001 18.9213 23.4626C19.3597 23.91 19.9401 24.1561 20.5547 24.1561C21.1692 24.1561 21.7496 23.91 22.1934 23.4588C22.6354 23.0002 22.8762 22.3923 22.8744 21.7454C22.8708 21.104 22.6283 20.5036 22.1934 20.0599C21.755 19.6049 21.1728 19.3551 20.5547 19.3551V19.355ZM21.1818 22.4016C20.8458 22.7447 20.2618 22.7391 19.9348 22.4053C19.7659 22.23 19.6742 21.9989 19.676 21.7527C19.6778 21.5122 19.7677 21.2866 19.9348 21.1151C20.1019 20.9417 20.3229 20.8466 20.5565 20.8466C20.7901 20.8466 21.0111 20.9417 21.1818 21.1207C21.3453 21.2885 21.4352 21.5122 21.437 21.7527C21.437 21.9989 21.3453 22.2301 21.1818 22.4016L21.1818 22.4016Z" fill="black"/>
<path d="M16.2619 29.4888C15.6438 29.4888 15.0634 29.7387 14.6232 30.1955C14.1848 30.6504 13.9422 31.2545 13.9422 31.8959C13.9422 32.5373 14.1847 33.1396 14.6268 33.6001C15.0652 34.0476 15.6456 34.2937 16.2602 34.2937C16.8747 34.2937 17.4551 34.0475 17.9025 33.5907C18.7884 32.6566 18.7884 31.1352 17.8989 30.1954C17.4623 29.7405 16.8801 29.4888 16.2619 29.4888L16.2619 29.4888ZM16.8891 32.5354C16.5531 32.8785 15.9691 32.8729 15.6421 32.5392C15.4749 32.3658 15.3833 32.1364 15.3833 31.894C15.3833 31.6516 15.4749 31.4223 15.6421 31.2489C15.8092 31.0755 16.0302 30.9804 16.2638 30.9804C16.4974 30.9804 16.7184 31.0755 16.8819 31.2451C17.2198 31.6031 17.2198 32.1867 16.8891 32.5354L16.8891 32.5354Z" fill="black"/>
<path d="M31.1112 18.1804C31.9971 17.2463 31.9971 15.7248 31.1022 14.7814C30.6638 14.3339 30.0834 14.0878 29.4688 14.0878C28.8543 14.0878 28.2739 14.3339 27.8301 14.7851C26.9263 15.7229 26.9263 17.2462 27.8301 18.1841C28.2685 18.639 28.8507 18.8907 29.4688 18.8907C30.0869 18.8907 30.6692 18.639 31.1112 18.1804H31.1112ZM28.8435 15.8441C29.0106 15.6726 29.2335 15.5794 29.4689 15.5794C29.7043 15.5794 29.9271 15.6745 30.087 15.8367C30.4266 16.1947 30.4266 16.7764 30.0906 17.1306C29.7564 17.4774 29.1832 17.4774 28.8472 17.1306C28.5004 16.7689 28.5004 16.2021 28.8436 15.8441L28.8435 15.8441Z" fill="black"/>
<path d="M38.8861 22.0366C38.4513 21.5779 37.8709 21.3262 37.2474 21.3262C36.6274 21.3262 36.0435 21.5779 35.6014 22.0366C34.7156 22.9707 34.7156 24.4921 35.6104 25.4356C36.0489 25.883 36.6311 26.1292 37.2474 26.1292C37.8673 26.1292 38.4477 25.8812 38.8807 25.4318C39.3192 24.9769 39.5618 24.3728 39.5618 23.7314C39.5636 23.0919 39.321 22.4878 38.8861 22.0366H38.8861ZM37.8655 24.3765C37.5384 24.7158 36.9437 24.7047 36.6274 24.3802C36.2878 24.0222 36.2878 23.4405 36.6238 23.0863C36.7909 22.9129 37.0138 22.8178 37.2492 22.8178C37.4827 22.8178 37.7002 22.9129 37.8673 23.0863C38.0344 23.2597 38.1261 23.489 38.1261 23.7314C38.1261 23.9738 38.0326 24.2031 37.8655 24.3766L37.8655 24.3765Z" fill="black"/>
<path d="M31.4617 27.9524C30.8472 27.9524 30.2668 28.1985 29.8194 28.6553C28.9335 29.5894 28.9335 31.1109 29.8248 32.0506C30.2632 32.5056 30.8454 32.7573 31.4635 32.7573C32.0816 32.7573 32.662 32.5056 33.1023 32.0506C34.0061 31.1128 34.0061 29.5876 33.0987 28.646C32.6584 28.1985 32.078 27.9524 31.4617 27.9524L31.4617 27.9524ZM32.0834 30.9953C31.7492 31.3421 31.1706 31.3383 30.8454 30.999C30.5058 30.641 30.5058 30.0593 30.8364 29.7088C31.0035 29.5372 31.2263 29.444 31.4617 29.444C31.6971 29.444 31.9199 29.5372 32.0835 29.705C32.4321 30.0668 32.4321 30.6336 32.0835 30.9953H32.0834Z" fill="black"/>
<path d="M32.2272 24.3558C33.131 23.418 33.131 21.8928 32.2272 20.9568C31.7941 20.5075 31.2137 20.2595 30.5938 20.2595C29.9738 20.2595 29.3953 20.5075 28.9604 20.9568C28.522 21.4118 28.2794 22.0159 28.2794 22.6573C28.2794 23.2986 28.522 23.9009 28.955 24.3521C29.3899 24.8108 29.9703 25.0625 30.592 25.0625C31.2155 25.0606 31.7977 24.8089 32.2272 24.3558V24.3558ZM29.7187 22.6554C29.7187 22.413 29.8104 22.1837 29.9775 22.0103C30.1392 21.8425 30.3584 21.7492 30.5938 21.7492C30.8292 21.7492 31.0484 21.8425 31.2101 22.0103C31.5587 22.372 31.5587 22.9388 31.2065 23.3042C30.8831 23.6454 30.3099 23.651 29.9774 23.3005C29.8103 23.1271 29.7187 22.8978 29.7187 22.6554L29.7187 22.6554Z" fill="black"/>
</svg>
