<svg width="149" height="67" viewBox="0 0 149 67" fill="none" xmlns="http://www.w3.org/2000/svg">
<path id="path" fill-rule="evenodd" clip-rule="evenodd" d="M60.4699 54.7563L49.2144 58.7899C53.2013 58.1044 56.9463 56.7233 60.4699 54.7563ZM86.5883 52.811C82.1179 53.8561 77.726 55.0442 73.1938 55.5833C77.9434 55.9735 82.317 54.526 86.5883 52.811ZM75.5003 39.0194C75.524 37.2522 74.3833 37.4737 73.3368 37.6247C69.7977 38.1334 67.9784 40.8611 66.264 43.4858C65.0143 45.3986 63.9563 47.5445 63.9272 49.9606C63.9157 50.8817 64.1609 51.614 65.353 50.9562C68.6076 49.1599 71.5338 46.9768 73.645 43.8604C74.6509 42.3756 75.3492 40.7473 75.5003 39.0194ZM73.2121 53.493C76.0909 53.6359 78.8531 52.8427 81.6105 52.1423C93.525 49.1153 103.561 42.7747 112.658 34.6845C118.734 29.2799 124.236 23.3491 129.539 17.2123C130.023 16.6529 130.49 16.0676 131.219 15.8116C132.038 15.5244 132.617 15.5901 132.231 16.6813C132.137 16.9502 131.764 17.2015 132.274 17.358C134.033 17.8985 133.556 19.18 133.244 20.3457C132.659 22.5336 131.194 24.2581 129.941 26.0531C126.431 31.0823 122.727 35.9836 118.413 40.3565C114.407 44.4159 109.858 47.8493 105.215 51.1534C102.26 53.2566 99.2249 55.355 95.7461 56.3053C93.435 56.9366 91.5682 58.3482 89.3133 58.9903C84.9905 60.221 80.6717 61.401 76.1545 61.6516C72.4366 61.8575 68.9245 61.1206 65.6902 59.2707C64.6241 58.6604 63.6216 58.6178 62.5392 59.0635C59.6219 60.2637 56.6572 61.3739 53.7019 62.4353C48.8941 64.1632 43.8343 65.1203 38.7705 65.8762C30.6938 67.0819 22.6057 67.4619 14.527 65.8599C9.77878 64.9184 5.15861 63.6816 1.59306 60.0822C0.65426 59.1346 -0.0420504 58.0888 0.001977 56.6806C0.0202653 56.0737 0.211954 55.6144 0.805986 55.3604C1.50839 55.061 1.57003 55.5589 1.8938 56.0141C4.11346 59.1366 7.65123 59.5457 11.0129 60.238C20.2769 62.1461 29.4943 61.2723 38.6892 59.6643C45.7255 58.4335 52.5741 56.5282 59.1918 53.8235C59.7174 53.6088 60.4422 53.6271 60.0046 52.6348C58.4799 49.1776 58.7258 45.6425 59.9667 42.2023C61.8815 36.8919 65.0014 32.5867 70.7344 30.9421C73.815 30.0582 75.8694 31.0593 77.6765 33.684C82.2818 40.3701 79.7546 47.5696 74.5038 51.8795C74.0331 52.2649 73.563 52.6504 73.0936 53.0351C73.1329 53.1882 73.1729 53.3406 73.2121 53.493Z" fill="#F9896B"/>
<path fill-rule="evenodd" clip-rule="evenodd" d="M132.524 7.35702C136.13 6.22179 139.502 4.62664 142.531 2.35754C139.196 4.02381 135.86 5.69075 132.524 7.35702ZM139.978 22.5071C140.063 18.6788 140.799 14.9317 141.388 11.1656C141.476 10.6028 141.877 9.98909 141.169 9.49734C140.49 9.02523 139.966 9.5075 139.506 9.81027C136.998 11.4583 134.146 12.2778 131.414 13.409C129.688 14.1243 128.083 15.1715 126.287 15.8522C123.523 16.8994 120.833 18.1552 118.144 19.392C116.781 20.0185 115.184 19.9799 113.998 21.1741C112.835 22.3452 111.575 21.9923 110.144 20.0409C109.413 19.0452 109.113 17.7176 110.357 16.7727C111.38 15.9958 112.48 15.2846 113.633 14.7231C121.264 11.0078 128.924 7.35422 136.558 3.64779C138.272 2.81601 139.931 1.86772 141.604 0.953308C144.646 -0.709574 145.934 -0.263204 147.559 2.81601C148.821 5.20636 148.922 7.56555 148.074 10.1117C146.44 15.013 144.947 19.961 144.263 25.1054C144.126 26.1363 144.134 27.1855 144.037 28.2232C143.926 29.4248 143.363 29.7317 142.331 29.0245C140.044 27.4585 139.851 26.9308 139.978 22.5071Z" fill="#F9896B"/>
</svg>
