<svg width="20" height="20" viewBox="0 0 20 20" fill="none" xmlns="http://www.w3.org/2000/svg">
<g clip-path="url(#clip0_0_73)">
<path d="M8.43063 14.0991C8.48397 14.0541 8.53813 14.0075 8.58813 13.9583C5.80397 16.69 1.26397 15.415 0.1998 11.5625V11.5566C-1.2277 6.31496 4.79147 2.33329 8.58647 5.99996C8.66563 6.08412 13.9081 11.675 13.5748 11.3191H13.5898C14.3723 12.1258 15.504 12.0375 16.1773 11.3325C16.9015 10.5758 16.9273 9.34079 16.2165 8.57162C15.094 7.27912 12.8898 8.24496 13.1006 10.1608L11.839 8.87579L10.3756 7.47662C10.6773 6.87746 11.0731 6.35329 11.569 5.89996C11.5156 5.94579 11.4615 5.99329 11.4115 6.04079C14.2065 3.29912 18.7431 4.60412 19.7998 8.43996V8.44496C21.2306 13.6858 15.2048 17.6675 11.4131 14.0008C11.3356 13.9175 6.09647 8.29162 6.42813 8.64829L6.4248 8.63579C6.41147 8.63579 6.41147 8.62329 6.41147 8.62329C5.5898 7.77579 4.47563 7.90329 3.82397 8.59746C3.09897 9.35412 3.07397 10.5891 3.78647 11.3466C4.8598 12.6091 7.11147 11.6733 6.8998 9.71912C6.98147 9.80329 9.8073 12.7041 9.6273 12.52C9.1698 13.4325 8.65813 13.8516 8.43063 14.0991Z" fill="#3734A9"/>
</g>
<defs>
<clipPath id="clip0_0_73">
<rect width="20" height="20" fill="white"/>
</clipPath>
</defs>
</svg>
