<svg width="46" height="46" fill="none" xmlns="http://www.w3.org/2000/svg"><path d="M30.928 9.718a12.8 12.8 0 00-8.189 2.979 12.665 12.665 0 00-7.66-2.571c-1.328 0-2.643.207-3.91.617l-.56.18.059.607a1.854 1.854 0 01-.492 1.454 1.6 1.6 0 01-.502.353l-.87.382.586.768c.72.945.647 2.297-.17 3.145a2.214 2.214 0 01-3.02.18l-.703-.584-.392.844c-.097.211-.22.392-.363.543a1.687 1.687 0 01-1.402.52l-.584-.061-.174.581C1.13 24.488 2.372 29.72 5.82 33.31c2.47 2.564 5.757 3.975 9.254 3.975 3.015 0 5.872-1.051 8.185-2.983 2.246 1.685 4.883 2.573 7.667 2.573 7.215 0 13.083-6.092 13.083-13.577.003-7.489-5.867-13.58-13.082-13.58zM6.84 32.254c-2.947-3.067-4.083-7.48-3.028-11.635a3.117 3.117 0 001.95-.952c.075-.079.147-.163.217-.25a3.61 3.61 0 001.639.397c.99 0 1.92-.4 2.621-1.128 1.14-1.182 1.395-2.965.71-4.419.086-.073.17-.15.25-.233a3.359 3.359 0 00.904-2.018c.97-.264 1.97-.399 2.977-.399 3.109 0 6.032 1.257 8.233 3.541 4.543 4.714 4.543 12.38 0 17.094-2.2 2.282-5.125 3.539-8.236 3.539-3.114 0-6.04-1.257-8.237-3.537zm24.087 3.127c-2.372 0-4.626-.727-6.57-2.105 5.071-5.298 5.062-13.887-.03-19.171a12.324 12.324 0 00-.442-.438 11.39 11.39 0 017.042-2.456c6.422 0 11.645 5.422 11.645 12.086.002 6.662-5.223 12.083-11.645 12.083z" fill="#000"/><path d="M15.852 19.594c.618 0 1.199-.25 1.633-.701a2.416 2.416 0 00.685-1.69 2.444 2.444 0 00-.685-1.717 2.273 2.273 0 00-1.633-.694c-.614 0-1.195.247-1.642.703-.893.942-.892 2.465.003 3.396a2.27 2.27 0 001.64.703zm-.625-3.047a.867.867 0 011.247-.004.93.93 0 01.259.653.915.915 0 01-.26.637.873.873 0 01-1.243 0 .945.945 0 01-.003-1.286zm-8.402 5.556c-.619 0-1.199.25-1.643.71-.886.935-.886 2.456.004 3.396.438.455 1.02.707 1.639.707.618 0 1.198-.252 1.638-.707a2.47 2.47 0 000-3.399 2.266 2.266 0 00-1.638-.707zm.621 3.053a.873.873 0 01-1.238.003.953.953 0 01-.003-1.294.859.859 0 01.621-.268.86.86 0 01.622.268.928.928 0 01-.002 1.29zm8.271 4.135a2.27 2.27 0 001.643-.71c.886-.934.886-2.456-.01-3.4a2.273 2.273 0 00-1.633-.693c-.614 0-1.195.246-1.639.698a2.47 2.47 0 000 3.399c.44.456 1.023.706 1.64.706zm-.625-3.044a.867.867 0 011.243-.008c.34.358.34.94.004 1.294a.873.873 0 01-1.243 0 .929.929 0 01-.004-1.287zm5.463-6.892c-.619 0-1.199.252-1.634.701a2.416 2.416 0 00-.684 1.69 2.445 2.445 0 00.684 1.717 2.274 2.274 0 001.634.693c.614 0 1.195-.246 1.638-.697a2.441 2.441 0 00.681-1.714 2.413 2.413 0 00-.68-1.685 2.26 2.26 0 00-1.64-.705zm.627 3.047a.893.893 0 01-1.247.003.924.924 0 01-.259-.652.915.915 0 01.259-.638.859.859 0 01.622-.268c.233 0 .454.095.625.274a.907.907 0 01.255.632.936.936 0 01-.255.649zm-4.92 7.087c-.618 0-1.199.25-1.639.706a2.437 2.437 0 00-.68 1.7c0 .642.242 1.245.684 1.705a2.273 2.273 0 001.633.694c.615 0 1.195-.246 1.642-.703.886-.934.886-2.456-.003-3.396a2.256 2.256 0 00-1.637-.706zm.627 3.046a.893.893 0 01-1.247.004.925.925 0 01-.259-.645c0-.242.092-.472.26-.645a.856.856 0 011.24-.004.955.955 0 01.006 1.29zM31.111 18.18c.886-.934.886-2.455-.009-3.399a2.273 2.273 0 00-1.633-.693c-.615 0-1.195.246-1.639.697a2.47 2.47 0 000 3.4c.439.454 1.02.706 1.639.706.618 0 1.2-.252 1.642-.71zm-2.268-2.336a.868.868 0 011.244-.007c.34.358.34.94.004 1.294a.873.873 0 01-1.244 0 .929.929 0 01-.003-1.287zm10.043 6.193a2.237 2.237 0 00-1.639-.71c-.62 0-1.203.25-1.646.71-.885.934-.885 2.455.01 3.399a2.28 2.28 0 001.636.693c.62 0 1.2-.248 1.634-.697a2.437 2.437 0 00.68-1.7 2.423 2.423 0 00-.675-1.695zm-1.02 2.34c-.328.339-.922.328-1.239.003a.953.953 0 01-.003-1.294.85.85 0 011.243 0 .927.927 0 01-.002 1.29zm-6.404 3.575a2.28 2.28 0 00-1.643.703c-.886.934-.886 2.456.006 3.396a2.26 2.26 0 001.639.706c.618 0 1.198-.251 1.638-.706a2.473 2.473 0 00-.003-3.405 2.282 2.282 0 00-1.637-.694zm.621 3.043a.873.873 0 01-1.238.004.954.954 0 01-.009-1.29.867.867 0 011.248-.004.927.927 0 010 1.29zm.144-6.639a2.47 2.47 0 000-3.4 2.252 2.252 0 00-1.633-.697c-.62 0-1.199.248-1.634.698a2.438 2.438 0 00-.68 1.7c0 .642.242 1.244.675 1.695a2.246 2.246 0 003.272.004zm-2.508-1.7c0-.243.091-.472.258-.646a.85.85 0 01.617-.26.85.85 0 01.616.26.928.928 0 01-.004 1.294.858.858 0 01-1.229-.003.925.925 0 01-.258-.646z" fill="#000"/></svg>