<svg width="149" height="67" fill="none" xmlns="http://www.w3.org/2000/svg"><path fill-rule="evenodd" clip-rule="evenodd" d="M60.47 54.756L49.214 58.79c3.987-.686 7.732-2.067 11.256-4.034zm26.118-1.945c-4.47 1.045-8.862 2.233-13.394 2.772 4.75.39 9.123-1.057 13.394-2.772zM75.5 39.019c.024-1.767-1.117-1.545-2.163-1.394-3.54.508-5.359 3.236-7.073 5.86-1.25 1.914-2.308 4.06-2.337 6.476-.011.92.234 1.653 1.426.995 3.255-1.796 6.18-3.98 8.292-7.096 1.006-1.484 1.704-3.113 1.855-4.84zm-2.288 14.474c2.879.143 5.641-.65 8.398-1.35 11.915-3.028 21.951-9.368 31.048-17.459 6.076-5.404 11.578-11.335 16.881-17.472.484-.56.951-1.144 1.68-1.4.819-.288 1.398-.222 1.012.87-.094.268-.467.52.043.676 1.759.54 1.282 1.822.97 2.988-.585 2.188-2.05 3.912-3.303 5.707-3.51 5.03-7.214 9.93-11.528 14.303-4.006 4.06-8.555 7.493-13.198 10.797-2.955 2.104-5.99 4.202-9.469 5.152-2.311.632-4.178 2.043-6.433 2.685-4.323 1.231-8.641 2.411-13.159 2.662-3.717.206-7.23-.531-10.464-2.381-1.066-.61-2.068-.653-3.15-.208-2.918 1.2-5.883 2.31-8.838 3.372-4.808 1.728-9.868 2.685-14.931 3.441-8.077 1.206-16.165 1.586-24.244-.016-4.748-.942-9.368-2.178-12.934-5.778-.939-.947-1.635-1.993-1.591-3.401.018-.607.21-1.067.804-1.32.702-.3.764.198 1.088.653 2.22 3.123 5.757 3.532 9.119 4.224 9.264 1.908 18.481 1.034 27.676-.574 7.036-1.23 13.885-3.136 20.503-5.84.525-.215 1.25-.197.813-1.19-1.525-3.456-1.28-6.992-.038-10.432 1.915-5.31 5.034-9.615 10.767-11.26 3.081-.884 5.135.117 6.943 2.742 4.605 6.686 2.078 13.886-3.173 18.196l-1.41 1.155.118.458z" fill="#F9896B"/><path fill-rule="evenodd" clip-rule="evenodd" d="M132.524 7.357c3.606-1.135 6.978-2.73 10.007-5l-10.007 5zm7.454 15.15c.085-3.828.821-7.575 1.41-11.341.088-.563.489-1.177-.219-1.669-.679-.472-1.203.01-1.663.313-2.508 1.648-5.36 2.468-8.092 3.599-1.726.715-3.331 1.762-5.127 2.443-2.764 1.047-5.454 2.303-8.143 3.54-1.363.627-2.96.588-4.146 1.782-1.163 1.171-2.423.818-3.854-1.133-.731-.996-1.031-2.323.213-3.268 1.023-.777 2.123-1.488 3.276-2.05 7.631-3.715 15.291-7.369 22.925-11.075 1.714-.832 3.373-1.78 5.046-2.695 3.042-1.663 4.33-1.216 5.955 1.863 1.262 2.39 1.363 4.75.515 7.296-1.634 4.901-3.127 9.849-3.811 14.993-.137 1.031-.129 2.08-.226 3.118-.111 1.202-.674 1.509-1.706.802-2.287-1.566-2.48-2.094-2.353-6.518z" fill="#F9896B"/></svg>