<svg width="20" height="20" fill="none" xmlns="http://www.w3.org/2000/svg"><g clip-path="url(#clip0_0_73)"><path d="M8.43 14.1c.054-.046.108-.092.158-.142C5.804 16.69 1.264 15.415.2 11.562v-.005C-1.228 6.315 4.79 2.333 8.586 6l4.989 5.32h.015c.782.806 1.914.717 2.587.012.724-.756.75-1.991.04-2.76-1.123-1.293-3.327-.327-3.116 1.589l-1.262-1.285-1.463-1.4A5.392 5.392 0 0111.569 5.9a4.238 4.238 0 00-.158.14c2.796-2.74 7.332-1.436 8.389 2.4v.005c1.43 5.24-4.595 9.223-8.387 5.556L6.428 8.648l-.003-.012c-.014 0-.014-.013-.014-.013-.821-.847-1.935-.72-2.587-.026-.725.757-.75 1.992-.038 2.75 1.074 1.262 3.325.326 3.114-1.628l2.727 2.801c-.457.912-.969 1.332-1.196 1.58z" fill="#3734A9"/></g><defs><clipPath id="clip0_0_73"><path fill="#fff" d="M0 0h20v20H0z"/></clipPath></defs></svg>